<svg id="visual" viewBox="0 0 900 450" width="900" height="450" xmlns="http://www.w3.org/2000/svg" xmlns:xlink="http://www.w3.org/1999/xlink" version="1.1"><rect x="0" y="0" width="900" height="450" fill="#F5F5F5"></rect><defs><linearGradient id="grad1_0" x1="50%" y1="100%" x2="100%" y2="0%"><stop offset="10%" stop-color="#3674b7" stop-opacity="1"></stop><stop offset="90%" stop-color="#3674b7" stop-opacity="1"></stop></linearGradient></defs><defs><linearGradient id="grad1_1" x1="50%" y1="100%" x2="100%" y2="0%"><stop offset="10%" stop-color="#3674b7" stop-opacity="1"></stop><stop offset="90%" stop-color="#f5f5f5" stop-opacity="1"></stop></linearGradient></defs><defs><linearGradient id="grad2_0" x1="0%" y1="100%" x2="50%" y2="0%"><stop offset="10%" stop-color="#3674b7" stop-opacity="1"></stop><stop offset="90%" stop-color="#3674b7" stop-opacity="1"></stop></linearGradient></defs><defs><linearGradient id="grad2_1" x1="0%" y1="100%" x2="50%" y2="0%"><stop offset="10%" stop-color="#f5f5f5" stop-opacity="1"></stop><stop offset="90%" stop-color="#3674b7" stop-opacity="1"></stop></linearGradient></defs><g transform="translate(900, 450)"><path d="M-292.5 0C-290.3 -40 -288.1 -80 -270.2 -111.9C-252.4 -143.9 -218.8 -167.8 -188.8 -188.8C-158.8 -209.8 -132.3 -228 -101.4 -244.8C-70.5 -261.6 -35.3 -277.1 0 -292.5L0 0Z" fill="#9eb2d6"></path><path d="M-146.2 0C-145.2 -20 -144.1 -40 -135.1 -56C-126.2 -71.9 -109.4 -83.9 -94.4 -94.4C-79.4 -104.9 -66.1 -114 -50.7 -122.4C-35.3 -130.8 -17.6 -138.5 0 -146.2L0 0Z" fill="#3674b7"></path></g><g transform="translate(0, 0)"><path d="M292.5 0C269.5 31.5 246.5 63 232.8 96.4C219.1 129.9 214.6 165.3 196.6 196.6C178.5 227.8 147 254.9 111.9 270.2C76.9 285.5 38.5 289 0 292.5L0 0Z" fill="#9eb2d6"></path><path d="M146.3 0C134.8 15.7 123.3 31.5 116.4 48.2C109.5 64.9 107.3 82.7 98.3 98.3C89.3 113.9 73.5 127.5 56 135.1C38.5 142.8 19.2 144.5 0 146.3L0 0Z" fill="#3674b7"></path></g></svg>