<svg id="visual" viewBox="0 0 900 450" width="900" height="450" xmlns="http://www.w3.org/2000/svg" xmlns:xlink="http://www.w3.org/1999/xlink" version="1.1"><path d="M0 262L21.5 263.7C43 265.3 86 268.7 128.8 261C171.7 253.3 214.3 234.7 257.2 243.5C300 252.3 343 288.7 385.8 300C428.7 311.3 471.3 297.7 514.2 281.5C557 265.3 600 246.7 642.8 238.2C685.7 229.7 728.3 231.3 771.2 238.8C814 246.3 857 259.7 878.5 266.3L900 273L900 451L878.5 451C857 451 814 451 771.2 451C728.3 451 685.7 451 642.8 451C600 451 557 451 514.2 451C471.3 451 428.7 451 385.8 451C343 451 300 451 257.2 451C214.3 451 171.7 451 128.8 451C86 451 43 451 21.5 451L0 451Z" fill="#031f48" stroke-linecap="round" stroke-linejoin="miter"></path></svg>